<svg xmlns="http://www.w3.org/2000/svg" width="16" height="16" fill="currentColor" class="bi bi-type-strikethrough" viewBox="0 0 16 16"><path d="M6.333 5.686c0 .31.082.581.222.814h5.15a1.82 1.82 0 0 0-.278-1.01 1.797 1.797 0 0 0-1.673-.99 1.784 1.784 0 0 0-1.492.542z"/><path d="M7.068 0H2v1.5h1.25L5.73 8h-.462l-.3 2.025a1.747 1.747 0 0 1-.547 1.138 1.757 1.757 0 0 1-.547.14H2v1.5h4.5a2.5 2.5 0 0 0 2.163-3.74L8.294 8h2.493A3.99 3.99 0 0 1 16 11.667a3.984 3.984 0 0 1-.445 1.742l2.057 1.94a.5.5 0 0 1-.056.723l-3 2.5a.5.5 0 0 1-.628-.14L11.313 15H2v-1.5h2.25l.2-1.4A1.748 1.748 0 0 0 4.038 11H2v-1.5h2.843c.37 0 .706-.078 1-.222A1.79 1.79 0 0 0 7.068 9h2.286c.342 0 .642-.07.904-.19.12-.076.23-.174.33-.287z"/></svg>
